<svg alt="" viewBox="0 0 100 100" xmlns="http://www.w3.org/2000/svg" xmlns:xlink="http://www.w3.org/1999/xlink">
  <defs>
    <path id="color" d="M 42.2,78.9 46.1,64.4 Q 50,65 53.88,64.48 L 57.7,78.9 Q 50,60 42.2,78.9Z" />
  </defs>
    <use xlink:href="#color" transform="rotate(0,50,50)" fill="#FFFFFF"/>  <use xlink:href="#color" transform="rotate(22.5,50,50)" fill="#000000"/>  <use xlink:href="#color" transform="rotate(45,50,50)" fill="#F30502"/>  <use xlink:href="#color" transform="rotate(67.5,50,50)" fill="#F0742A"/>  <use xlink:href="#color" transform="rotate(90,50,50)" fill="#FFFF00"/>  <use xlink:href="#color" transform="rotate(112.5,50,50)" fill="#068542"/>  <use xlink:href="#color" transform="rotate(135,50,50)" fill="#0B8B74"/>  <use xlink:href="#color" transform="rotate(157.5,50,50)" fill="#92D14F"/>  <use xlink:href="#color" transform="rotate(180,50,50)" fill="#3977DA"/>  <use xlink:href="#color" transform="rotate(202.5,50,50)" fill="#93CCDD"/>  <use xlink:href="#color" transform="rotate(225,50,50)" fill="#012060"/>  <use xlink:href="#color" transform="rotate(247.5,50,50)" fill="#7030A0"/>  <use xlink:href="#color" transform="rotate(270,50,50)" fill="#ED28C0"/>  <use xlink:href="#color" transform="rotate(292.5,50,50)" fill="#984907"/>  <use xlink:href="#color" transform="rotate(315,50,50)" fill="#FDEADB"/>  <use xlink:href="#color" transform="rotate(337.5,50,50)" fill="#A6A6A6"/></svg>