<svg viewBox="0 0 60 60" xmlns="http://www.w3.org/2000/svg" xmlns:xlink="http://www.w3.org/1999/xlink">
  <defs>
    <path id="color" d="M 46,71 46.1,64.4 Q 43,59 43.78,65 L 57.7,78.9 Q 53,66 46.3,80Z"></path>
  </defs>
  <g transform="translate(-20, -20)">
	<use xlink:href="#color" transform="rotate(0,50,50)" fill="#000000"></use>
	<use xlink:href="#color" transform="rotate(24,50,50)" fill="#F30502"></use>
	<use xlink:href="#color" transform="rotate(48,50,50)" fill="#F0742A"></use>
	<use xlink:href="#color" transform="rotate(72,50,50)" fill="#FFFF00"></use>
	<use xlink:href="#color" transform="rotate(96,50,50)" fill="#068542"></use>
	<use xlink:href="#color" transform="rotate(120,50,50)" fill="#0B8B74"></use>
	<use xlink:href="#color" transform="rotate(144,50,50)" fill="#92D14F"></use>
	<use xlink:href="#color" transform="rotate(168,50,50)" fill="#3977DA"></use>
	<circle cx="50" cy="50" r="9" fill="#93CCDD"></circle>
	<use xlink:href="#color" transform="rotate(192,50,50)" fill="#012060"></use>
	<use xlink:href="#color" transform="rotate(216,50,50)" fill="#7030A0"></use>
	<use xlink:href="#color" transform="rotate(240,50,50)" fill="#ED28C0"></use>
	<use xlink:href="#color" transform="rotate(264,50,50)" fill="#984907"></use>
	<use xlink:href="#color" transform="rotate(288,50,50)" fill="#FDEADB"></use>
	<use xlink:href="#color" transform="rotate(312,50,50)" fill="#A6A6A6"></use>
	<use xlink:href="#color" transform="rotate(336,50,50)" fill="#FFFFFF"></use>
	</g>
</svg>