<?xml version="1.0" encoding="UTF-8" standalone="no"?>
<!-- Created with Inkscape (http://www.inkscape.org/) -->

<svg
   xmlns:dc="http://purl.org/dc/elements/1.1/"
   xmlns:cc="http://creativecommons.org/ns#"
   xmlns:rdf="http://www.w3.org/1999/02/22-rdf-syntax-ns#"
   xmlns:svg="http://www.w3.org/2000/svg"
   xmlns="http://www.w3.org/2000/svg"
   xmlns:xlink="http://www.w3.org/1999/xlink"
   xmlns:sodipodi="http://sodipodi.sourceforge.net/DTD/sodipodi-0.dtd"
   xmlns:inkscape="http://www.inkscape.org/namespaces/inkscape"
   width="32mm"
   height="32mm"
   viewBox="0 0 32 32"
   version="1.1"
   id="svg8"
   inkscape:version="0.92.2 2405546, 2018-03-11"
   sodipodi:docname="Rock-lineart.svg">
  <title
     id="title2637">Skirt - lineart</title>
  <defs
     id="defs2">
    <pattern
       inkscape:collect="always"
       xlink:href="#Strips1_1"
       id="pattern2622"
       patternTransform="matrix(-0.09341575,-0.04512426,1.5535373,-3.2161156,0,0)" />
    <pattern
       inkscape:isstock="true"
       inkscape:stockid="Stripes 1:1"
       id="Strips1_1"
       patternTransform="translate(0,0) scale(10,10)"
       height="1"
       width="2"
       patternUnits="userSpaceOnUse"
       inkscape:collect="always">
      <rect
         id="rect1665"
         height="2"
         width="1"
         y="-0.5"
         x="0"
         style="fill:black;stroke:none" />
    </pattern>
    <pattern
       inkscape:collect="always"
       xlink:href="#Polkadots-large"
       id="pattern2518"
       patternTransform="matrix(0.18230144,-0.00353401,0.0037378,0.19281377,1.9135045,1.1339286)" />
    <pattern
       inkscape:stockid="Polka dots, large"
       id="Polkadots-large"
       patternTransform="translate(0,0) scale(10,10)"
       height="10"
       width="10"
       patternUnits="userSpaceOnUse"
       inkscape:collect="always">
      <circle
         id="circle2115"
         r="0.45"
         cy="0.810"
         cx="2.567"
         style="fill:black;stroke:none" />
      <circle
         id="circle2117"
         r="0.45"
         cy="2.33"
         cx="3.048"
         style="fill:black;stroke:none" />
      <circle
         id="circle2119"
         r="0.45"
         cy="2.415"
         cx="4.418"
         style="fill:black;stroke:none" />
      <circle
         id="circle2121"
         r="0.45"
         cy="3.029"
         cx="1.844"
         style="fill:black;stroke:none" />
      <circle
         id="circle2123"
         r="0.45"
         cy="1.363"
         cx="6.08"
         style="fill:black;stroke:none" />
      <circle
         id="circle2125"
         r="0.45"
         cy="4.413"
         cx="5.819"
         style="fill:black;stroke:none" />
      <circle
         id="circle2127"
         r="0.45"
         cy="4.048"
         cx="4.305"
         style="fill:black;stroke:none" />
      <circle
         id="circle2129"
         r="0.45"
         cy="3.045"
         cx="5.541"
         style="fill:black;stroke:none" />
      <circle
         id="circle2131"
         r="0.45"
         cy="5.527"
         cx="4.785"
         style="fill:black;stroke:none" />
      <circle
         id="circle2133"
         r="0.45"
         cy="5.184"
         cx="2.667"
         style="fill:black;stroke:none" />
      <circle
         id="circle2135"
         r="0.45"
         cy="1.448"
         cx="7.965"
         style="fill:black;stroke:none" />
      <circle
         id="circle2137"
         r="0.45"
         cy="5.049"
         cx="7.047"
         style="fill:black;stroke:none" />
      <circle
         id="circle2139"
         r="0.45"
         cy="0.895"
         cx="4.340"
         style="fill:black;stroke:none" />
      <circle
         id="circle2141"
         r="0.45"
         cy="0.340"
         cx="7.125"
         style="fill:black;stroke:none" />
      <circle
         id="circle2143"
         r="0.45"
         cy="1.049"
         cx="9.553"
         style="fill:black;stroke:none" />
      <circle
         id="circle2145"
         r="0.45"
         cy="2.689"
         cx="7.006"
         style="fill:black;stroke:none" />
      <circle
         id="circle2147"
         r="0.45"
         cy="2.689"
         cx="8.909"
         style="fill:black;stroke:none" />
      <circle
         id="circle2149"
         r="0.45"
         cy="4.407"
         cx="9.315"
         style="fill:black;stroke:none" />
      <circle
         id="circle2151"
         r="0.45"
         cy="3.870"
         cx="7.820"
         style="fill:black;stroke:none" />
      <circle
         id="circle2153"
         r="0.45"
         cy="5.948"
         cx="8.270"
         style="fill:black;stroke:none" />
      <circle
         id="circle2155"
         r="0.45"
         cy="7.428"
         cx="7.973"
         style="fill:black;stroke:none" />
      <circle
         id="circle2157"
         r="0.45"
         cy="8.072"
         cx="9.342"
         style="fill:black;stroke:none" />
      <circle
         id="circle2159"
         r="0.45"
         cy="9.315"
         cx="8.206"
         style="fill:black;stroke:none" />
      <circle
         id="circle2161"
         r="0.45"
         cy="9.475"
         cx="9.682"
         style="fill:black;stroke:none" />
      <circle
         id="circle2163"
         r="0.45"
         cy="6.186"
         cx="9.688"
         style="fill:black;stroke:none" />
      <circle
         id="circle2165"
         r="0.45"
         cy="6.296"
         cx="3.379"
         style="fill:black;stroke:none" />
      <circle
         id="circle2167"
         r="0.45"
         cy="8.204"
         cx="2.871"
         style="fill:black;stroke:none" />
      <circle
         id="circle2169"
         r="0.45"
         cy="8.719"
         cx="4.59"
         style="fill:black;stroke:none" />
      <circle
         id="circle2171"
         r="0.45"
         cy="9.671"
         cx="3.181"
         style="fill:black;stroke:none" />
      <circle
         id="circle2173"
         r="0.45"
         cy="7.315"
         cx="5.734"
         style="fill:black;stroke:none" />
      <circle
         id="circle2175"
         r="0.45"
         cy="6.513"
         cx="6.707"
         style="fill:black;stroke:none" />
      <circle
         id="circle2177"
         r="0.45"
         cy="9.670"
         cx="5.730"
         style="fill:black;stroke:none" />
      <circle
         id="circle2179"
         r="0.45"
         cy="8.373"
         cx="6.535"
         style="fill:black;stroke:none" />
      <circle
         id="circle2181"
         r="0.45"
         cy="7.154"
         cx="4.37"
         style="fill:black;stroke:none" />
      <circle
         id="circle2183"
         r="0.45"
         cy="7.25"
         cx="0.622"
         style="fill:black;stroke:none" />
      <circle
         id="circle2185"
         r="0.45"
         cy="5.679"
         cx="0.831"
         style="fill:black;stroke:none" />
      <circle
         id="circle2187"
         r="0.45"
         cy="8.519"
         cx="1.257"
         style="fill:black;stroke:none" />
      <circle
         id="circle2189"
         r="0.45"
         cy="6.877"
         cx="1.989"
         style="fill:black;stroke:none" />
      <circle
         id="circle2191"
         r="0.45"
         cy="3.181"
         cx="0.374"
         style="fill:black;stroke:none" />
      <circle
         id="circle2193"
         r="0.45"
         cy="1.664"
         cx="1.166"
         style="fill:black;stroke:none" />
      <circle
         id="circle2195"
         r="0.45"
         cy="0.093"
         cx="1.151"
         style="fill:black;stroke:none" />
      <circle
         id="circle2197"
         r="0.45"
         cy="10.093"
         cx="1.151"
         style="fill:black;stroke:none" />
      <circle
         id="circle2199"
         r="0.45"
         cy="4.451"
         cx="1.302"
         style="fill:black;stroke:none" />
      <circle
         id="circle2201"
         r="0.45"
         cy="3.763"
         cx="3.047"
         style="fill:black;stroke:none" />
    </pattern>
  </defs>
  <sodipodi:namedview
     id="base"
     pagecolor="#ffffff"
     bordercolor="#666666"
     borderopacity="1.0"
     inkscape:pageopacity="0.0"
     inkscape:pageshadow="2"
     inkscape:zoom="3.959798"
     inkscape:cx="65.94112"
     inkscape:cy="66.104275"
     inkscape:document-units="mm"
     inkscape:current-layer="layer2"
     showgrid="false"
     inkscape:pagecheckerboard="false"
     borderlayer="true"
     inkscape:snap-global="false"
     fit-margin-top="1"
     fit-margin-right="1"
     fit-margin-bottom="1"
     fit-margin-left="1"
     inkscape:window-width="2560"
     inkscape:window-height="1339"
     inkscape:window-x="0"
     inkscape:window-y="0"
     inkscape:window-maximized="1" />
  <metadata
     id="metadata5">
    <rdf:RDF>
      <cc:Work
         rdf:about="">
        <dc:format>image/svg+xml</dc:format>
        <dc:type
           rdf:resource="http://purl.org/dc/dcmitype/StillImage" />
        <dc:title>Skirt - lineart</dc:title>
        <cc:license
           rdf:resource="http://creativecommons.org/publicdomain/zero/1.0/" />
        <dc:date>2018-12-11</dc:date>
        <dc:creator>
          <cc:Agent>
            <dc:title>Frank Tremmel</dc:title>
          </cc:Agent>
        </dc:creator>
        <dc:subject>
          <rdf:Bag>
            <rdf:li>skirt</rdf:li>
            <rdf:li>cloth</rdf:li>
            <rdf:li>line art</rdf:li>
            <rdf:li>school</rdf:li>
            <rdf:li>education</rdf:li>
            <rdf:li>Rock</rdf:li>
            <rdf:li>Kleidung</rdf:li>
            <rdf:li>Unterricht</rdf:li>
            <rdf:li>Schule</rdf:li>
          </rdf:Bag>
        </dc:subject>
        <dc:description>line art skirt</dc:description>
      </cc:Work>
      <cc:License
         rdf:about="http://creativecommons.org/publicdomain/zero/1.0/">
        <cc:permits
           rdf:resource="http://creativecommons.org/ns#Reproduction" />
        <cc:permits
           rdf:resource="http://creativecommons.org/ns#Distribution" />
        <cc:permits
           rdf:resource="http://creativecommons.org/ns#DerivativeWorks" />
      </cc:License>
    </rdf:RDF>
  </metadata>
  <g
     inkscape:groupmode="layer"
     id="layer2"
     inkscape:label="Ebene 2"
     transform="translate(0.95683732,1.8719949)">
    <g
       id="g2635"
       transform="translate(-0.1398643,-1.211918)">
      <path
         inkscape:connector-curvature="0"
         id="path920"
         d="M 0.76839989,6.6807333 0.46772168,7.5159507 1.403165,8.2175333 l 0.8686259,0.9020344 0.3006783,2.1715653 1.3697563,3.474504 1.5367997,4.276312 1.069078,4.042452 0.9020347,2.305199 0.2672697,2.772922 -0.100226,0.701583 1.0356693,0.300677 1.5702081,-0.467722 0.334087,0.03341 0.501131,0.367495 0.801808,-0.367495 0.200452,0.06682 0.06682,0.434313 1.069078,-0.668173 0.367495,0.133633 0.701583,0.233862 0.634765,-0.133635 1.737252,-2.03793 0.06682,0.601356 0.400905,0.267269 0.668173,-0.434314 0.701583,-0.835216 1.503391,-0.267269 0.634765,-0.567948 0.701583,-0.300678 0.534539,-0.334087 -0.300679,-0.668174 1.703844,-3.006782 -0.03341,0.50113 0.367495,0.300678 H 23.8204 l 0.26727,-0.334087 -0.200452,-0.601356 0.601356,-0.434313 1.703844,-0.668174 0.668173,-0.668174 -0.100227,-0.50113 -0.300678,-0.300678 v -0.200452 l 0.935445,-0.634765 0.367496,-0.7684 0.100224,-1.637026 0.902036,-1.069078 L 28.86511,13.629741 28.297161,13.429289 28.09671,13.095202 29.199197,11.925898 28.86511,11.524993 27.963074,11.35795 28.531021,10.823411 29.09897,9.5204721 29.666917,9.2866114 29.900779,8.8188897 29.700325,8.351168 H 27.127856 L 23.185631,8.1841244 21.047475,7.8834463 17.706606,6.179603 14.933685,4.6093946 12.561668,3.7407685 10.623964,3.1728209 10.089425,2.7385078 9.287616,2.3710123 8.8198943,1.5357951 8.3521726,1.6026125 7.5169553,2.2707863 5.2117558,3.7407685 2.8397387,5.6450639 1.4699824,6.4468726 Z"
         style="fill:#ffffff;stroke:#ff6600;stroke-width:0.065;stroke-linecap:butt;stroke-linejoin:miter;stroke-miterlimit:4;stroke-dasharray:none;stroke-opacity:1" />
      <g
         style="fill:url(#pattern2622);fill-opacity:1"
         id="g945">
        <path
           style="fill:url(#pattern2622);fill-opacity:1;stroke:#ffcc00;stroke-width:0.065;stroke-linecap:butt;stroke-linejoin:miter;stroke-miterlimit:4;stroke-dasharray:none;stroke-opacity:1"
           d="m 7.6067707,28.72433 0.7323289,-0.566965 1.9607514,0.14174 -0.283482,0.566965 -1.2756698,0.354354 z"
           id="path922"
           inkscape:connector-curvature="0" />
        <path
           style="fill:url(#pattern2622);fill-opacity:1;stroke:#ffcc00;stroke-width:0.065;stroke-linecap:butt;stroke-linejoin:miter;stroke-miterlimit:4;stroke-dasharray:none;stroke-opacity:1"
           d="m 16.772693,26.598213 0.755953,-0.330728 0.307105,0.283481 -0.118117,0.73233 -0.566964,0.330729 -0.496094,-0.307107 z"
           id="path924"
           inkscape:connector-curvature="0" />
        <path
           style="fill:url(#pattern2622);fill-opacity:1;stroke:#ffcc00;stroke-width:0.065;stroke-linecap:butt;stroke-linejoin:miter;stroke-miterlimit:4;stroke-dasharray:none;stroke-opacity:1"
           d="m 20.623326,25.511532 c -0.141742,-0.165364 -0.212612,-0.448846 -0.212612,-0.448846 l 0.496094,-0.661459 0.590588,-0.188988 0.377976,0.661458 -0.637835,0.354353 z"
           id="path926"
           inkscape:connector-curvature="0" />
        <path
           style="fill:url(#pattern2622);fill-opacity:1;stroke:#ffcc00;stroke-width:0.065;stroke-linecap:butt;stroke-linejoin:miter;stroke-miterlimit:4;stroke-dasharray:none;stroke-opacity:1"
           d="m 23.103794,21.282924 0.4016,-0.259859 0.448847,0.02362 0.165365,0.661458 -0.4016,0.283483 -0.283482,-0.04725 -0.259859,-0.283482 z"
           id="path928"
           inkscape:connector-curvature="0" />
        <path
           style="fill:url(#pattern2622);fill-opacity:1;stroke:#ffcc00;stroke-width:0.065;stroke-linecap:butt;stroke-linejoin:miter;stroke-miterlimit:4;stroke-dasharray:none;stroke-opacity:1"
           d="m 26.859933,19.298549 c -0.188989,0 -0.566965,-0.07087 -0.566965,-0.07087 l -0.330729,-0.307106 0.236235,-0.496093 0.236236,-0.02363 0.47247,0.543341 z"
           id="path930"
           inkscape:connector-curvature="0" />
        <path
           style="fill:url(#pattern2622);fill-opacity:1;stroke:#ffcc00;stroke-width:0.065;stroke-linecap:butt;stroke-linejoin:miter;stroke-miterlimit:4;stroke-dasharray:none;stroke-opacity:1"
           d="m 28.32459,13.487165 -0.377976,0.566964 -0.826823,-0.02362 -0.188989,-0.307105 0.330729,-0.519717 0.779577,-0.04725 z"
           id="path932"
           inkscape:connector-curvature="0" />
        <path
           style="fill:url(#pattern2622);fill-opacity:1;stroke:#ffcc00;stroke-width:0.065;stroke-linecap:butt;stroke-linejoin:miter;stroke-miterlimit:4;stroke-dasharray:none;stroke-opacity:1"
           d="M 29.222284,9.4711678 29.033295,8.8805799 29.364024,8.3372393 h 0.448847 l 0.118118,0.4252232 -0.425222,0.6614583 z"
           id="path934"
           inkscape:connector-curvature="0" />
      </g>
      <path
         inkscape:connector-curvature="0"
         id="path947"
         d="M 0.40159969,7.2033108 1.2284226,6.4473584 2.6694569,5.8803941 4.6538319,4.2031247 6.9925593,2.5022319 7.7957589,2.1242557 8.5044641,1.5100444 8.9769346,1.7462795 9.6383929,2.6203494 10.701451,3.2109373 10.063616,3.3290547 9.8037575,3.8015251 9.1422991,4.1086307 9.0714284,4.6047244 8.7170759,4.7228421 8.4572172,5.2898063 7.7721353,5.549665 7.6303943,6.0457587 6.6382068,6.2347466 6.1184895,6.8253345 5.2916666,7.0143226 4.7955729,7.7466514 3.8742559,7.6757809 3.5435267,8.1718747 2.9765625,8.1010042 2.8111979,8.6207213 2.3387276,9.4239208 1.4882812,8.3844862 Z"
         style="fill:url(#pattern2518);fill-opacity:1;stroke:#ff00ff;stroke-width:0.065;stroke-linecap:butt;stroke-linejoin:miter;stroke-miterlimit:4;stroke-dasharray:none;stroke-opacity:1" />
      <path
         sodipodi:nodetypes="ccsssssccsccscccsssssssscsccccccccccccccccccsccccccscccccccccccccccccccscccssccccccccccccccccccccccsssssscsssssssscssscscccsscccccscsccscscccscssscccssssscccsssssscccccccccccssssccccccccccccsssssccccsccccccccccccscccccccccccccscccsscscccscsscccccsccccccccccccccccsccccsssccccsccscccscscscccssccsccccccscscccccccsccccccccccsssscsccccccsccsccsscscscccsccsccccsccccccccccccccccccccccccssscccsssccccccccccccccccccsssccccsscccccssssssssccccccccccccccccccccccssccccscssscccssccscccccccccsssssssssssscscsscccccscccccccccsssssssssssscccccccccccc"
         inkscape:connector-curvature="0"
         id="path827"
         transform="scale(0.26458333)"
         d="m 31.577243,4.6208281 c -1.24013,0.1823524 -1.779627,1.0582245 -2.120163,1.5495101 -0.340535,0.4912857 -0.95213,0.8710576 -1.167552,1.0465577 -1.170983,0.9539762 -2.389002,1.2586745 -3.891358,2.2129897 -2.06379,1.3109444 -4.26642,2.7710554 -6.301416,4.2636224 -1.773501,1.300773 -3.239317,2.796335 -4.858424,4.092114 -1.745965,1.397304 -3.121198,2.785678 -4.8727783,3.891627 -1.4345261,0.90576 -3.9757004,1.163818 -5.7542236,2.69217 -0.3263558,0.280451 -0.751333,0.622391 -1.1230469,1.070313 -0.3717138,0.447923 -0.62999059,2.027911 -0.63337049,2.769252 -0.00294,0.645609 0.30883729,1.149386 0.60546879,1.50586 0.2966313,0.356473 0.6063442,0.623209 0.8183593,0.826172 1.2026357,1.151284 2.1448407,1.349616 2.9854911,2.020647 0.8974791,0.716394 1.9840056,2.497937 2.5496652,3.811663 0.2596308,0.602979 0.333964,1.004754 0.3828125,1.505859 0.048847,0.501105 0.060051,1.112155 0.1855469,1.925781 0.3932303,2.549454 0.8801125,4.966703 1.6568075,7.271206 1.465646,4.348652 3.391717,8.462836 4.931641,12.652344 0.838151,2.280272 1.608461,4.594515 2.390625,6.917968 0.866087,2.572751 1.861178,5.015474 2.599052,7.572824 0.707841,2.453261 1.233272,4.999328 1.890625,7.550781 0.523603,2.032312 0.94281,4.161531 1.660156,6.259766 0.706601,2.066804 1.763812,3.861815 2.400391,5.685547 0.609297,1.745574 1.134925,3.513972 1.482422,5.298828 0.495306,2.54404 0.268657,4.8459 0.284877,7.3884 10e-4,0.16002 -0.122799,0.55388 -0.259766,1.05468 -0.13697,0.50081 -0.286382,1.24802 0.148438,1.95703 0.384948,0.6277 2.433853,0.96206 2.963727,1.11496 0.529874,0.15288 1.030505,0.20331 1.402344,0.25781 1.271349,0.18633 2.436432,-0.0887 3.447265,-0.25781 0.929898,-0.15557 1.714062,-0.53824 2.400391,-0.80469 0.686329,-0.26646 1.234717,-0.40952 1.710938,-0.33203 0.03863,0.006 0.240258,0.13154 0.568359,0.44922 0.328101,0.31767 0.792361,0.83373 1.603515,0.94531 1.116583,0.1536 1.898094,-0.4693 2.486329,-0.82617 0.294122,-0.17843 0.551276,-0.31084 0.708984,-0.36133 0.01625,-0.005 0.01021,0.004 0.02344,0 0.0064,0.0381 0.0072,0.0344 0.01367,0.0801 0.02532,0.17869 0.04706,0.40346 0.15625,0.69336 0.109191,0.28989 0.390438,0.69941 0.833985,0.86523 0.724444,0.27084 1.476238,0.10189 2.029297,-0.18555 0.553062,-0.28743 0.995697,-0.67185 1.410156,-1.02539 0.414463,-0.35353 0.79998,-0.67986 1.107422,-0.85742 0.234671,-0.13553 0.347705,-0.13357 0.472656,-0.13281 0.07362,0.16256 0.117305,0.36041 0.472656,0.5918 0.6945,0.45223 1.498825,0.65935 2.279297,0.66406 1.126526,0.007 2.299376,-0.27614 3.292969,-0.9082 2.72976,-1.73644 3.827005,-4.71861 5.58789,-6.52539 0.003,0.37723 -0.009,0.76541 0.15625,1.07031 0.233538,0.43115 0.588463,0.83059 1.166016,1.01172 0.799846,0.25084 1.523492,-0.10108 1.992188,-0.42188 0.468695,-0.32081 0.83302,-0.66653 1.070312,-0.81836 1.549389,-0.99135 2.575667,-2.31554 3.757813,-3.01172 0.864608,-0.50917 2.187143,-0.720705 3.558593,-1.0332 1.371451,-0.312491 2.897834,-0.774296 3.824219,-2.15625 0.07172,-0.106991 0.10746,-0.213974 0.148438,-0.320312 0.140646,-0.0517 1.568139,-0.581851 2.693359,-1.496094 0.446287,-0.362608 0.743803,-0.514045 0.921875,-0.582032 0.178054,-0.06799 0.206767,-0.06692 0.339844,-0.07422 0.06656,-0.0037 0.169865,0.01956 0.435547,-0.08203 0.2657,-0.101442 0.585152,-0.47535 0.65039,-0.714843 0.13047,-0.478991 0.04096,-0.609058 0.01367,-0.990235 -0.05335,-0.745766 -0.424799,-1.130314 -0.761719,-1.447265 1.69379,-1.6284 2.561121,-4.036191 3.449219,-5.904297 0.600208,-1.246677 1.022248,-2.417308 1.476563,-3.609375 0.309203,0.720435 0.804828,1.422581 1.779297,1.490234 1.012108,0.06992 1.714906,-0.506108 2.066406,-1.328125 0.34371,-0.803807 -0.02594,-1.453583 -0.191406,-1.824218 -0.112265,-0.251743 -0.128523,-0.370393 -0.144532,-0.384766 0.07353,-0.14098 0.220528,-0.291584 0.527344,-0.470703 0.338457,-0.197594 0.804158,-0.388099 1.285156,-0.650391 1.607456,-0.876567 3.790708,-1.129223 5.824219,-2.28125 1.045474,-0.592282 2.186996,-1.288604 3.048826,-2.376953 0.14661,-0.185121 0.36777,-0.438772 0.56055,-0.78125 0.19279,-0.342463 0.38151,-0.843299 0.25195,-1.410156 -0.10236,-0.447795 -0.29051,-0.8298 -0.4866,-1.137277 -0.26582,-0.416821 -0.54836,-0.727921 -0.89426,-1.026786 -0.13826,-0.11946 -0.28628,-0.225971 -0.4375,-0.326172 0.39059,-0.334353 0.89935,-0.633045 1.47852,-0.957031 0.79233,-0.443229 1.714,-0.932124 2.42773,-1.802734 0.57121,-0.69676 0.86702,-1.500962 1.0625,-2.25 0.33899,-1.298963 0.24435,-2.565657 0.19922,-3.712891 -0.0451,-1.147238 -0.0371,-2.162837 0.28125,-3.011719 0.32444,-0.865345 1.25439,-1.679845 2.12696,-2.783203 0.28286,-0.357694 0.96351,-0.791865 1.3789,-1.71289 0.10655,-0.236183 0.27689,-0.568606 0.38477,-0.990235 0.10787,-0.421629 0.16296,-1.037992 -0.21485,-1.578125 -0.48196,-0.597414 -1.06067,-0.715692 -1.67382,-0.855509 -0.2004,-0.137266 -0.37586,-0.230271 -0.55471,-0.339846 0.86273,-0.721057 1.43111,-1.579695 2.04492,-2.076172 -0.002,0.0016 0.50639,-0.213012 1.00391,-0.427734 0.24876,-0.107339 0.51784,-0.212654 0.80468,-0.517579 0.14344,-0.152466 0.29011,-0.381751 0.33985,-0.669921 0.0497,-0.288152 -0.0207,-0.584508 -0.13282,-0.804688 -0.0666,-0.130809 -0.27041,-0.212068 -0.42968,-0.326172 0.15602,-0.319068 0.30008,-0.839239 0.0449,-1.328125 -0.43635,-0.836065 -1.32379,-1.13551 -2.07422,-1.21875 -0.60186,-0.06675 -1.19225,-0.0048 -1.76367,0.03711 0.85034,-0.768729 1.56969,-1.671439 2.03711,-2.427734 0.88028,-1.424326 0.97785,-2.852686 1.56445,-3.558594 0.0474,-0.05702 0.2243,-0.16791 0.53125,-0.324218 0.30697,-0.156316 0.74946,-0.356369 1.12305,-0.820313 0.24559,-0.304985 0.56747,-0.699662 0.81836,-1.1875 0.25089,-0.487829 0.64227,-1.178889 0.41791,-1.87727 -0.16508,-0.513888 -0.40173,-1.056543 -0.71325,-1.219335 -0.29938,-0.156449 -0.69846,-0.48075 -1.81618,-0.731319 -1.11772,-0.25057 -2.93255,-0.155578 -4.20231,-0.125541 -4.95595,0.117238 -8.929351,0.440561 -13.931246,0.129392 C 90.85409,30.1579 88.364453,30.115514 86.145602,29.746877 84.600659,29.490203 82.441781,29.078177 80.988866,28.58218 77.447558,27.373245 74.291657,25.686145 70.883982,23.961086 67.251323,22.122133 63.831049,19.850112 60.024607,17.933376 57.564668,16.694673 54.781606,15.559471 52.242772,14.555788 49.147048,13.331946 46.226006,12.464981 43.059447,11.470118 42.105345,11.170361 41.363185,11.162503 41.136111,10.937024 40.909038,10.711546 40.347737,10.649758 39.980469,10.363281 39.26672,9.8065413 38.891895,9.3350738 38.25803,9.1843273 37.624166,9.0335808 37.141128,8.8920176 36.861546,8.6687023 36.59996,8.4597613 36.35783,8.0075964 36.072483,7.3991711 35.787137,6.7907461 35.482051,5.8477237 34.693895,5.3057879 34.119359,4.9107366 32.817373,4.4384757 31.577243,4.6208281 Z m 1.604401,2.7170625 c 0.260367,0.1790287 0.490328,0.5826681 0.767578,1.1738282 0.277247,0.5911604 0.589609,1.3640114 1.322265,1.9492192 0.709754,0.566914 1.495841,0.725467 2.132813,0.876953 0.575378,0.136838 1.020268,0.271461 1.3125,0.458984 -0.493997,0.165699 -1.291357,0.13509 -1.573661,0.454799 -0.42571,0.482114 -0.591086,1.084086 -0.651785,1.667969 -1.217889,0.253004 -1.752994,0.438444 -2.166296,1.040458 -0.440938,0.64227 -0.62241,1.470525 -0.813894,1.979352 -0.610568,0.07644 -1.005594,0.0044 -1.288505,0.456195 -0.304095,0.485677 -0.699955,1.329687 -0.734096,1.957589 -0.532488,0.142346 -1.227641,0.267014 -1.847098,0.657924 -0.627792,0.396169 -0.988536,1.045166 -1.275949,2.233816 -3.281916,-0.423513 -4.096765,1.184712 -5.075893,2.679968 -1.523069,0.171251 -3.23495,0.546572 -4.049386,1.246651 -0.799545,0.68728 -0.990885,1.381524 -1.496093,2.168806 -1.067345,-0.334445 -2.667512,-0.263417 -3.443917,0.15039 -1.007311,0.536874 -1.400511,1.108562 -1.462874,1.965647 -0.679121,-0.229662 -0.806315,-0.918421 -1.721559,-0.297123 -0.450986,0.444769 -0.513765,1.112941 -0.707868,1.734095 -0.310421,0.206061 -0.8904516,0.208286 -1.0491071,0.567801 C 9.2548348,32.696841 9.104892,33.313106 9.0800781,33.595703 8.5243133,32.52115 8.1258283,31.730188 7.1523438,30.953125 5.8938952,29.948596 4.5461001,29.569297 3.8085938,28.863281 3.5398805,28.606041 3.2830153,28.374258 3.1308594,28.191406 2.9787035,28.008554 2.9667062,27.924178 2.9667969,27.904297 2.96741,27.769818 3.0370217,27.584016 3.2558594,27.320312 3.474697,27.056609 3.8105353,26.761076 4.1484375,26.470703 5.3678854,25.422785 7.4378717,25.106949 9.3457031,23.902344 11.296088,22.67087 12.937098,21.13716 14.609375,19.798828 c 1.6965,-1.357717 3.235865,-2.804807 4.886719,-4.015625 1.937516,-1.42107 4.045973,-2.671404 6.140625,-4.001953 1.337215,-0.849415 2.941813,-1.546026 4.378906,-2.7167969 0.592497,-0.4826955 0.898454,-1.0630184 1.179687,-1.46875 0.281235,-0.4057315 0.479876,-0.5859587 0.847884,-0.6078102 0.368009,-0.021852 0.80444,0.1203347 1.138448,0.3499977 z m 18.115234,9.4492184 c 2.508506,0.991697 4.987382,2.045763 7.375,3.248047 3.635376,1.830596 7.050412,4.2613 10.851563,6.185547 3.41732,1.729941 6.909278,3.462135 10.607421,4.724609 1.58064,0.539601 3.203144,0.905154 4.820313,1.173829 2.367243,0.39329 4.73155,0.498905 7.041016,0.642578 5.00177,0.311161 10.039259,0.621753 15.103509,0.501953 0.91602,-0.02167 1.74811,-0.190802 2.48828,-0.320313 -0.2543,0.646438 -0.18535,1.191267 -0.14843,1.699219 0.0241,0.331498 0.0458,0.427395 -0.50454,1.196169 -0.55034,0.768773 -0.61387,2.331347 -1.14005,3.182731 -0.63155,1.021878 -1.18379,1.958281 -1.84961,2.382813 h -0.002 c -0.018,-0.03347 -0.30293,0.009 -0.63672,-0.03711 -0.22397,-0.03099 -0.45957,-0.08795 -0.84179,-0.0059 -0.1911,0.04112 -0.44854,0.134076 -1.01159,0.04982 -0.56305,-0.08425 -4.398734,-0.622445 -6.584143,-1.180682 -1.922532,-0.491058 -3.842971,-0.882725 -5.625,-1.556641 -2.238973,-0.846724 -4.363938,-2.081131 -6.578125,-3.197266 -3.724168,-1.87729 -7.400989,-3.841516 -11.09375,-5.800781 C 70.599009,28.100353 67.770204,26.008992 64.46667,24.7812 62.684664,24.1189 59.904993,22.682783 57.601435,21.400341 56.449658,20.75912 55.414214,20.155544 54.669795,19.703075 54.297587,19.47684 53.996986,19.288269 53.798701,19.1562 c -0.08901,-0.05928 -0.151834,-0.103249 -0.191406,-0.132812 -0.108668,-0.142186 -0.278086,-0.224723 -0.457031,-0.222657 -0.311932,0.0067 -0.559815,0.26421 -0.554688,0.576172 0,7.11e-4 0.01525,0.147599 0.01563,0.148438 2.27e-4,8.38e-4 0.03635,0.09474 0.03711,0.0957 8.95e-4,0.0019 0.04136,0.08008 0.05859,0.103515 0.03439,0.04687 0.05914,0.06767 0.08008,0.08789 0.04184,0.04044 0.07429,0.06727 0.111329,0.0957 0.07404,0.05687 0.162735,0.119606 0.273437,0.193359 0.22148,0.147508 0.527797,0.343004 0.908203,0.574219 0.760811,0.462432 1.811037,1.072915 2.97461,1.720703 2.327149,1.295577 5.101005,2.734226 7.019531,3.447266 3.104141,1.153685 5.89351,3.199606 8.96289,4.828125 3.69111,1.958388 7.377243,3.931164 11.117188,5.816406 2.173081,1.095412 4.330964,2.356865 6.6875,3.248047 1.895301,0.716754 3.855413,1.113749 5.742187,1.595703 2.245416,0.573562 6.103809,1.877023 7.039909,2.086217 0.0629,0.111312 0.11612,0.227058 0.3058,0.363002 0.32035,0.331918 0.70644,0.468835 1.05469,0.539062 0.69649,0.140448 1.37971,0.06706 2.07421,0.01563 0.69451,-0.05144 1.38392,-0.097 1.68068,0.135215 0.29675,0.232216 0.10728,0.433657 -0.0478,0.778849 -0.0776,0.172611 -0.15179,0.40221 -0.84003,1.181625 -0.68824,0.779415 -1.37317,1.924569 -2.20882,2.347672 -0.13712,0.06943 -0.44716,0.109644 -0.90039,0.132812 -0.45324,0.02305 -1.06247,0.02627 -1.6836,0.398438 -0.42,0.251565 -0.95883,0.587786 -1.42382,1.056641 -0.28052,0.282841 -0.54246,0.661781 -0.69141,1.101562 C 98.767531,50.334817 92.729263,47.182804 88.980356,45.08198 84.33543,42.47905 75.169809,36.947215 75.169809,36.947215 c -0.09737,-0.05932 -0.210356,-0.08791 -0.324219,-0.08203 -0.561882,0.028 -0.744373,0.768944 -0.259765,1.054688 0,0 9.15426,5.523577 13.841796,8.15039 4.014773,2.249807 10.866605,5.820791 12.513679,6.677735 0.18143,0.432361 0.53864,0.711984 0.81836,0.859375 0.34767,0.183194 0.67161,0.261441 0.8789,0.324219 0.83428,0.252585 1.81997,0.353407 2.76758,-0.02148 0.78119,-0.308938 1.13807,-0.916854 1.41797,-1.30664 0.27991,-0.389791 0.44989,-0.545976 0.50781,-0.5625 0.1801,-0.05136 0.46188,-0.07033 0.60983,0.06316 0.14796,0.133487 0.0364,0.392993 -0.0847,0.661453 -0.12521,0.277606 -0.61174,0.648561 -1.14453,1.322266 -0.69392,0.877466 -1.85191,1.783906 -2.41406,3.283203 -0.48185,1.285115 -0.44472,2.572775 -0.39844,3.75 0.0463,1.177224 0.0959,2.253908 -0.14062,3.160156 -0.1564,0.599225 -0.38116,1.154327 -0.69336,1.535156 -0.4124,0.503048 -1.09528,0.898832 -1.89063,1.34375 -0.79535,0.444919 -1.708778,0.942342 -2.414064,1.824219 -0.221405,0.276813 -0.52956,0.633223 -0.78125,1.091797 -0.140649,0.256269 -0.262754,0.569793 -0.316407,0.914062 -3.549745,-1.54938 -12.00071,-5.350302 -16.123046,-8.207031 -3.229981,-2.238334 -5.624052,-5.721352 -9.021485,-8.142578 -2.555958,-1.821536 -5.646155,-2.552838 -7.86914,-4.339844 -0.653602,-0.525418 -1.576083,-1.557011 -2.302735,-2.443359 -0.726652,-0.886348 -1.269531,-1.625 -1.269531,-1.625 -0.09878,-0.141301 -0.263373,-0.221754 -0.435547,-0.212891 -0.402251,0.02163 -0.615132,0.485687 -0.36914,0.804688 0,0 0.562678,0.760504 1.30664,1.667969 0.743962,0.907464 1.655808,1.956746 2.44336,2.589843 2.460808,1.978186 5.574146,2.712724 7.912109,4.378907 3.203716,2.283174 5.604554,5.761911 9.037109,8.140624 4.680882,3.243793 14.05249,7.35172 16.861328,8.556641 0.17977,0.347486 0.452717,0.596262 0.728516,0.767578 0.350929,0.217966 0.724036,0.343856 1.128906,0.369141 0.370817,0.02305 0.448267,-0.142299 0.158071,0.294272 -0.290197,0.436571 -1.210161,1.033049 -2.201039,1.5944 -1.584409,0.8976 -3.751732,1.153403 -5.794922,2.267578 -0.339478,0.185121 -0.830917,0.382924 -1.335938,0.677734 -0.33891,0.197821 -0.624417,0.604249 -0.916016,0.96875 0.136146,-0.437701 0.0087,-0.865017 -0.02148,-1.240234 -0.375354,-0.610868 -0.712118,-0.69621 -1.296855,-0.759809 C 87.290416,76.604701 77.677795,71.832854 72.526995,69.433514 68.646157,67.625751 64.60111,66.274845 61.025042,64.15617 59.302359,63.135554 57.684417,61.90977 56.191057,60.560467 55.463464,59.903063 54.774106,59.221792 54.257463,58.456951 53.667612,57.583729 53.327286,56.474216 52.78676,55.371014 52.14155,54.054147 51.468177,52.75303 50.82387,51.451092 c -0.525967,-1.062796 -1.126285,-2.028684 -1.490235,-3.033203 -0.2928,-0.808097 -0.336344,-1.808712 -0.6875,-2.833985 -0.3708,-1.083635 -0.903014,-2.057467 -1.351213,-3.019451 C 46.615794,41.10681 45.88136,39.693205 45.214844,38.267578 44.839442,37.464638 44.52474,36.57717 44.0625,35.712891 42.695864,33.157592 41.061451,30.788657 39.492188,28.412109 38.517761,26.936407 37.536129,25.444039 36.4375,24.021484 c -1.160547,-1.502728 -3.484081,-4.095903 -3.650391,-4.28125 0.03194,-0.575425 0.119721,-1.061163 0.283203,-1.322265 0.543549,-0.561134 0.714875,-0.255405 1.160157,-0.177735 0.193867,0.168295 0.458873,0.407131 0.767578,0.69336 0.61741,0.572457 1.430278,1.341463 2.318359,2.193359 1.776163,1.703792 3.854949,3.72365 5.335938,5.115235 3.625493,3.406626 7.137018,6.975666 10.939453,10.246093 3.009906,2.588784 6.222253,4.896528 9.294922,7.337891 2.194624,1.743726 4.282868,3.693671 6.658203,5.322266 1.646264,1.128721 3.457284,1.867026 4.990234,2.908203 0.872221,0.592407 1.661678,1.412299 2.650391,2.082031 3.478896,2.356532 7.222992,4.229097 10.828125,6.267578 2.017708,1.140888 6.068359,3.351563 6.068359,3.351562 0.585937,0.320313 1.066406,-0.558593 0.480469,-0.878906 0,0 -4.052744,-2.205065 -6.052734,-3.335937 C 84.875531,57.488032 81.152737,55.620087 77.746094,53.3125 76.87348,52.721412 76.083237,51.901199 75.095703,51.230469 73.445701,50.10979 71.640452,49.369335 70.113281,48.322266 67.820779,46.750462 65.742421,44.820016 63.505859,43.042969 60.407665,40.581317 57.207714,38.279126 54.242188,35.728516 50.481592,32.49407 46.984197,28.943878 43.339844,25.519531 41.869808,24.13824 39.781181,22.11689 38.001953,20.410156 c -0.889616,-0.853366 -1.700047,-1.632354 -2.326172,-2.21289 -0.309334,-0.290877 -0.63373,-0.569504 -0.927734,-0.830078 0.178277,-0.522329 0.297318,-0.998378 0.537109,-1.347657 0.285914,-0.416461 0.783296,-0.778211 2.025391,-0.976562 0.257357,0.120913 5.12162,2.409269 7.445312,3.818359 2.911824,1.765736 5.569402,3.993259 8.4375,5.978516 2.327324,1.610941 7.013668,4.740234 7.013672,4.740234 0.557291,0.36849 1.110026,-0.467447 0.552735,-0.835937 0,0 -4.689221,-3.12452 -6.998047,-4.722657 -2.816539,-1.949568 -5.488504,-4.198505 -8.488281,-6.017578 -2.362601,-1.432683 -6.809835,-3.525742 -7.34961,-3.779297 0.05323,-0.427455 0.150023,-0.796237 0.373047,-1.048828 0.199057,-0.225441 0.520604,-0.414687 1.357289,-0.0618 0.836686,0.352887 1.854817,0.249667 3.675344,0.821636 1.820527,0.571969 4.922919,1.647921 7.96737,2.851492 z m -15.759766,7.927735 c 1.063781,1.377431 2.028925,2.841816 3.003907,4.318359 1.577476,2.388986 3.198787,4.738299 4.52539,7.21875 0.408454,0.76371 0.714576,1.626595 1.121094,2.496094 0.680852,1.456286 1.417617,2.868868 2.082031,4.294922 0.466844,1.002005 0.96795,1.94406 1.298828,2.910156 0.28063,0.819341 0.329773,1.822561 0.701172,2.847656 0.418333,1.154627 1.050334,2.1569 1.542969,3.152344 0.649761,1.312951 1.318548,2.608977 1.957031,3.912109 0.486562,0.993067 0.833968,2.165381 1.550781,3.226563 0.600647,0.889198 1.355919,1.629774 2.109376,2.310547 1.542224,1.393455 3.216563,2.663804 5.013671,3.728515 3.715404,2.201227 7.801874,3.559204 11.603516,5.330079 4.85415,2.261153 13.332257,6.458879 15.132813,7.351562 -0.316004,0.519898 -0.462461,1.103248 -0.648438,1.689453 -0.956009,1.908578 -1.461159,3.875189 -2.275391,5.566406 -0.933505,1.938962 -1.625421,3.888722 -2.863281,5.189453 -0.26211,0.275452 -0.687179,0.507146 -1.224609,0.767579 -0.537434,0.260447 -1.184194,0.547324 -1.765625,1.085937 -0.477301,0.442147 -0.978517,0.962071 -1.394532,1.576172 -1.371587,-2.548712 -3.568816,-6.506993 -5.271484,-8.855469 -1.108717,-1.529238 -2.495017,-2.740873 -3.623047,-4.074219 -2.102857,-2.485613 -3.979259,-5.2152 -6.193359,-7.714843 -2.426767,-2.739746 -5.136915,-5.158871 -7.589844,-7.771485 -2.791249,-2.972961 -5.333362,-6.235201 -8.28125,-9.169922 -3.479773,-3.464224 -7.387776,-6.41562 -10.875,-9.736328 C 31.736536,43.092073 28.4326,39.67517 25.158206,36.222656 c -2.06627,-2.17867 -5.780315,-6.337799 -6.177734,-6.783203 0.466579,-0.719945 0.926533,-1.405393 1.541015,-1.933594 0.723936,-0.622286 1.75353,-1.075448 3.323327,-1.290876 1.19099,-1.004609 2.694645,-2.56035 4.838783,-2.60366 0.160505,0.280308 2.157667,3.77009 3.279297,5.650391 1.408287,2.360852 2.872489,4.68025 4.296875,7.013672 1.240989,2.032984 2.446072,4.101252 3.728515,6.132812 1.15567,1.830728 2.519252,3.460512 3.447266,5.263672 0.506124,0.983429 0.727939,2.215915 1.320312,3.404297 1.117055,2.240972 3.832032,6.185547 3.832032,6.185547 1.002567,0.718502 1.839427,1.213659 0.9375,-0.634766 0,0 -2.725416,-4.005081 -3.75,-6.060547 -0.495557,-0.994159 -0.718302,-2.233049 -1.328125,-3.417968 -1.005838,-1.954383 -2.399833,-3.602895 -3.5,-5.345704 -1.268383,-2.009291 -2.471915,-4.073378 -3.720704,-6.11914 -1.43028,-2.343079 -2.89052,-4.653532 -4.289062,-6.998047 -1.132172,-1.897972 -3.264592,-5.623048 -3.341797,-5.757813 0.231797,-1.108647 0.598154,-1.577327 1.023438,-1.845703 0.368604,-0.232608 0.862476,-0.339068 1.277426,-0.249617 0.414949,0.08945 2.579782,2.508914 3.640542,3.882435 z m -17.634765,5.220703 c 0.02765,0.031 4.233214,4.748178 6.435547,7.070312 3.27947,3.457865 6.602655,6.892864 10.0625,10.1875 3.549802,3.380296 7.437088,6.321445 10.84375,9.712891 2.88096,2.868087 5.421302,6.115428 8.259765,9.138672 2.497678,2.660277 5.197493,5.077525 7.566406,7.751953 2.153103,2.43078 4.02653,5.14865 6.177735,7.691406 1.201795,1.420543 2.565599,2.616633 3.574219,4.007813 1.758832,2.425936 4.249607,6.967096 5.558593,9.412109 -0.210557,0.640827 -0.03634,1.116565 0.02148,1.396485 0.02729,0.132516 0.02896,0.189385 0.0332,0.208984 -0.503703,0.68394 -1.399894,1.019504 -2.617188,1.296875 -1.260476,0.287206 -2.758822,0.462246 -4.089843,1.246094 -0.820453,0.483171 -1.336744,0.997219 -1.955078,1.558589 0.137007,-0.32681 0.289808,-0.686193 0.169921,-1.041011 -0.03782,-0.111946 -0.09423,-0.216128 -0.145698,-0.51494 -0.05147,-0.298813 -0.08158,-0.647924 -0.23129,-0.99092 -0.880108,-2.016105 -2.639975,-3.336934 -3.875,-4.804687 -3.460017,-4.112035 -7.881128,-7.364383 -10.349609,-11.841797 -1.691618,-3.068319 -4.45706,-6.35639 -6.806641,-8.894531 -1.17479,-1.269071 -2.247492,-2.344419 -3.02539,-3.107422 -0.388952,-0.381506 -0.70431,-0.687175 -0.923828,-0.894531 -0.109758,-0.103673 -0.19855,-0.181563 -0.732161,-0.323511 -0.53361,-0.141948 -0.76621,0.518614 -0.300505,0.932411 0.465704,0.413797 0.781826,0.714012 1.165467,1.090309 0.767282,0.752595 1.823052,1.817902 2.982422,3.070313 2.318736,2.504821 5.041233,5.765708 6.644531,8.673828 2.62989,4.770183 7.143591,8.049566 10.482422,12.017578 1.346638,1.600399 2.980906,2.882079 3.276896,3.721873 0.295989,0.839793 0.162921,0.838763 0.0376,0.846493 -0.555617,0.03439 -1.048869,0.191059 -1.380859,0.289062 -1.504396,0.444091 -2.45329,1.583753 -3.285157,2.361333 -2.381196,2.22579 -3.447651,5.25307 -5.542968,6.58594 -0.62417,0.39705 -1.468828,0.61465 -2.259766,0.61132 -0.411206,-0.002 -0.844255,-0.12614 -1.171875,-0.31445 -0.01693,-0.0225 -0.03277,-0.038 -0.06836,-0.10547 -0.100185,-0.18957 -0.343838,-0.66162 -0.935547,-0.81054 -0.400338,-0.70581 -4.863966,-8.57567 -7.251953,-12.757821 -1.845706,-3.23244 -3.622698,-6.503968 -5.423828,-9.773437 -2.082348,-3.779951 -3.922289,-7.745501 -6.267578,-11.457031 -1.897812,-3.003375 -6.15625,-8.503906 -6.15625,-8.503906 -0.115361,-0.156052 -0.302519,-0.242263 -0.496094,-0.228516 -0.45942,0.02846 -0.695243,0.563602 -0.40625,0.921875 0,0 4.27615,5.533396 6.097656,8.416015 2.293201,3.629095 4.12294,7.572778 6.230469,11.398438 1.798858,3.265346 3.579826,6.548361 5.433593,9.794922 2.290735,4.011832 6.254144,10.991801 6.962891,12.240241 -0.264105,0.0782 -0.513993,0.18243 -0.732422,0.30859 -0.538031,0.31071 -0.979524,0.70931 -1.386719,1.05664 -0.407191,0.34734 -0.781657,0.64615 -1.05664,0.78906 -0.153487,0.0798 -0.203808,0.0453 -0.28125,0.0527 -0.0012,-0.008 0.0012,-0.007 0,-0.0156 -0.02457,-0.17465 -0.04561,-0.40066 -0.146484,-0.68554 -0.09302,-0.26261 -0.315171,-0.61706 -0.685547,-0.82227 -1.113871,-4.01323 -3.208816,-7.964941 -5.146485,-11.882815 -0.09091,-0.192162 -0.281671,-0.317326 -0.49414,-0.324219 -0.43009,-0.01015 -0.71436,0.443605 -0.517578,0.826172 1.86219,3.765262 3.816392,7.503752 4.917968,11.183592 -0.14344,0.0204 -0.281186,0.0478 -0.40625,0.0879 -0.440519,0.14105 -0.798117,0.35448 -1.115234,0.54687 -0.634239,0.38479 -1.098521,0.58893 -1.248047,0.56836 -0.03326,-0.005 -0.223041,-0.11418 -0.546875,-0.42773 -0.312088,-0.30219 -0.745321,-0.77816 -1.494141,-0.92969 -0.07465,-0.78823 -0.199196,-2.01117 -0.373047,-2.92383 -0.426342,-2.2381 -1.064013,-4.4152 -1.71289,-6.562504 -0.657013,-2.174222 -1.337807,-4.370336 -2.23633,-6.496093 -1.329974,-3.146502 -3.158245,-5.992811 -4.546875,-8.984375 -0.454086,-0.978248 -0.965595,-2.268457 -1.425781,-3.431641 -0.460187,-1.16318 -0.773677,-2.223502 -1.195313,-2.746094 -0.954225,-1.182704 -1.366083,-1.17898 -0.974609,0.582032 0.222739,0.371225 0.664303,1.424447 1.123046,2.583984 0.458744,1.159532 0.960439,2.460229 1.439454,3.492187 1.43277,3.086657 3.260072,5.921384 4.539062,8.947266 0.868604,2.054974 1.537441,4.214164 2.19336,6.384766 0.647518,2.142812 1.277144,4.280882 1.689453,6.445312 0.05547,0.2912 0.100848,0.74101 0.152343,1.14453 -0.818202,-0.10693 -2.861277,-0.36426 -4.330078,-0.37109 -0.878311,-0.004 -2.048236,-0.20039 -3.248047,0.25 -0.0615,-2.51757 -0.405783,-5.00934 -0.878906,-7.439455 -0.370675,-1.903911 -0.921608,-3.756077 -1.550781,-5.558594 -0.718508,-2.058452 -1.774854,-3.8518 -2.398438,-5.675782 C 25.483296,85.25551 25.070385,83.176382 24.529286,81.076159 23.887745,78.586053 23.360434,76.021547 22.625,73.472656 21.864795,70.83791 20.94394,68.285064 20.085938,65.736328 19.305309,63.417433 18.53146,61.084905 17.679688,58.767578 16.102381,54.476367 14.183799,50.371798 12.763672,46.158203 12.042453,44.018304 11.30004,41.937012 10.904297,39.841797 l 1.667969,3.298828 3.216796,5.240234 3.714844,7.550782 c 0.319166,0.722422 1.396571,0.190958 1.017578,-0.501953 l -3.734375,-7.601563 -3.226562,-5.242187 -2.658203,-5.263672 -0.477205,-2.988782 c -0.04947,-0.295422 -0.01685,-0.59933 0.07095,-0.798328 0.105944,-0.240075 0.254808,-0.387211 0.610974,-0.908481 0.356165,-0.521271 0.583186,-1.048422 0.799186,-1.261445 0.19349,-0.307315 0.51693,-0.05156 0.724609,-0.07227 l 3.683594,5.439453 3.291016,5.380859 6.158203,8.054688 9.21875,10.865234 c 0.485126,0.600768 1.378128,-0.148073 0.871094,-0.730469 l -9.212891,-10.851562 -6.097656,-7.980469 -3.269531,-5.351562 -3.5,-5.16211 c 0.544175,-0.503711 1.100963,-0.906966 1.707031,-1.11914 0.367291,-0.128582 0.754728,-0.196823 1.156448,-0.1791 0.401721,0.01772 0.815348,0.114462 1.265431,0.276765 z m 94.151553,3.47807 c -0.0215,0.631587 -0.49714,0.876846 -0.76919,0.917076 -0.1945,0.02876 -0.36526,-0.541244 -0.32935,-0.774449 0.0366,-0.237958 0.11351,-0.729189 0.4818,-0.789732 0.13268,-0.02181 0.63484,0.114973 0.61674,0.647105 z m -65.341005,3.518071 c 0,0 3.372867,4.148563 4.761718,6.326171 1.474322,2.311635 2.456583,4.999008 3.978516,7.449219 1.294227,2.08362 2.587829,4.262669 4.355469,6.082031 2.289777,2.356778 5.115308,4.044385 7.71289,5.869141 2.178822,1.530584 4.467195,2.843685 6.636719,4.294922 2.942582,1.968348 8.761719,6.054688 8.761719,6.054687 0.554809,0.47377 1.206794,-0.44564 0.576172,-0.8125 0,0 -5.815919,-4.083487 -8.783203,-6.068359 -2.206878,-1.476223 -4.493442,-2.793054 -6.623047,-4.289062 -2.637562,-1.852838 -5.397971,-3.518118 -7.566406,-5.75 -1.658918,-1.707462 -2.922318,-3.820605 -4.222657,-5.914063 -1.448746,-2.332392 -2.431227,-5.019857 -3.984375,-7.455078 -1.471944,-2.307897 -4.828125,-6.421875 -4.828125,-6.421875 -0.09539,-0.119133 -0.239962,-0.188183 -0.541898,-0.16678 -0.301936,0.0214 -0.493278,0.494129 -0.233492,0.801546 z m 58.758365,14.636951 c -0.29374,0.409062 -0.68895,0.553165 -0.76618,0.583705 -0.38316,0.15152 -0.98055,0.339227 -1.51591,0.177173 -0.166,-0.05025 -0.32397,-0.251755 -0.3962,-0.347098 -0.0457,-0.06039 -0.18077,-0.44038 -0.0117,-0.610771 0.25406,-0.256091 0.73072,-0.667175 1.16043,-0.748604 0.1879,-0.03561 0.48467,-0.135152 0.91853,-0.157366 0.33092,-0.01694 0.78755,0.199294 0.79052,0.378756 0.001,0.08976 0.003,0.470163 -0.17947,0.724205 z M 99.788392,72.04791 c -0.04781,-0.04117 -0.590502,-0.473615 -0.625936,-0.508352 -0.181225,-0.17766 -0.166248,-0.650729 -0.05042,-0.839298 0.259629,-0.422662 0.519593,-0.226131 0.809858,-0.156044 0.290266,0.07009 0.602296,1.018138 0.941926,1.497429 0.33963,0.479292 -0.59892,0.41661 -1.075428,0.0063 z M 64.732425,71.212891 c -0.592298,0.04153 -0.730451,0.850096 -0.185547,1.085937 4.662652,2.062254 8.949595,5.481862 13.419922,8.533203 0.634631,0.520562 1.353842,-0.519998 0.642578,-0.929687 -4.421756,-3.018187 -8.753384,-6.491542 -13.603516,-8.636719 -0.08535,-0.04004 -0.179325,-0.05816 -0.273437,-0.05273 z m 24.710888,8.492386 c 0.384187,0.110409 0.496573,1.147106 0.51389,1.395384 0.01482,0.21248 0.01684,0.672235 -0.05464,0.888206 -0.02603,0.07864 -0.343926,0.523374 -0.550841,0.544981 -0.244154,0.0255 -0.95759,-0.345469 -1.012999,-0.72224 -0.03685,-0.250578 -0.05662,-0.741751 0.125,-1.192576 0.05361,-0.133086 0.793864,-0.967129 0.979587,-0.913755 z m -8.500635,12.795456 c 0.106562,-0.03087 0.829454,0.76902 0.744083,1.069242 -0.08537,0.300221 -1.098238,0.470835 -1.662101,0.928974 -0.362107,0.294212 -1.262887,1.054197 -1.628173,0.514723 -0.39982,-0.590475 0.258988,-1.216887 0.78594,-1.705029 0.257864,-0.238872 1.259086,-0.662707 1.760251,-0.80791 z M 66.109031,103.08916 c -0.729226,0.73329 -1.435348,0.89906 -2.002145,0.4843 -0.32606,-0.23859 -0.48222,-1.11942 -0.469335,-1.14694 0.0126,-0.0269 0.298732,-1.22045 0.945432,-1.61909 0.235352,-0.14508 1.753365,-0.54839 2.169422,0.23325 0.200203,0.37612 -0.460271,1.86436 -0.643374,2.04848 z m -33.443012,4.40107 c 0.45814,-0.009 0.982309,0.0169 1.548828,0.0195 0.913113,0.004 2.281169,0.14734 3.36914,0.27343 -0.167655,0.0566 -0.333702,0.11697 -0.490234,0.17774 -0.772997,0.30009 -1.451167,0.61163 -2.021484,0.70703 -1.071437,0.17926 -2.047692,0.36395 -2.865235,0.24414 -0.432455,-0.0634 -0.851158,-0.11289 -1.15039,-0.19922 -0.245339,-0.0708 -0.347394,-0.14259 -0.404297,-0.20312 0.07671,-0.0955 0.08808,-0.11979 0.210937,-0.25391 0.253433,-0.27666 0.633039,-0.56838 0.650391,-0.57617 0.302693,-0.13601 0.694204,-0.18036 1.152344,-0.18946 z"
         style="color:#000000;font-style:normal;font-variant:normal;font-weight:normal;font-stretch:normal;font-size:medium;line-height:normal;font-family:sans-serif;font-variant-ligatures:normal;font-variant-position:normal;font-variant-caps:normal;font-variant-numeric:normal;font-variant-alternates:normal;font-feature-settings:normal;text-indent:0;text-align:start;text-decoration:none;text-decoration-line:none;text-decoration-style:solid;text-decoration-color:#000000;letter-spacing:normal;word-spacing:normal;text-transform:none;writing-mode:lr-tb;direction:ltr;text-orientation:mixed;dominant-baseline:auto;baseline-shift:baseline;text-anchor:start;white-space:normal;shape-padding:0;clip-rule:nonzero;display:inline;overflow:visible;visibility:visible;opacity:1;isolation:auto;mix-blend-mode:normal;color-interpolation:sRGB;color-interpolation-filters:linearRGB;solid-color:#000000;solid-opacity:1;vector-effect:none;fill:#000000;fill-opacity:1;fill-rule:nonzero;stroke:none;stroke-width:1.88976383;stroke-linecap:butt;stroke-linejoin:miter;stroke-miterlimit:4;stroke-dasharray:none;stroke-dashoffset:0;stroke-opacity:1;color-rendering:auto;image-rendering:auto;shape-rendering:auto;text-rendering:auto;enable-background:accumulate" />
    </g>
  </g>
</svg>
